<?xml version="1.0" encoding="UTF-8"?>
<svg id="Layer_1" xmlns="http://www.w3.org/2000/svg" version="1.1" viewBox="0 0 1165.35 963.51"><metadata><?xpacket begin="" id="W5M0MpCehiHzreSzNTczkc9d"?><x:xmpmeta xmlns:x="adobe:ns:meta/" x:xmptk="XMP Core 6.0.0"><rdf:RDF xmlns:rdf="http://www.w3.org/1999/02/22-rdf-syntax-ns#"><rdf:Description rdf:about="" xmlns:xmp="http://ns.adobe.com/xap/1.0/" xmlns:xmpMM="http://ns.adobe.com/xap/1.0/mm/" xmlns:dc="http://purl.org/dc/elements/1.1/" xmlns:dcterms="http://purl.org/dc/terms/" xmpMM:DocumentID="xmp.did:cb9f5498-bb58-4572-8043-8c369e6bfb9b" xmpMM:InstanceID="xmp.iid:cb9f5498-bb58-4572-8043-8c369e6bfb9b" dcterms:provenance="https://cai-manifests.adobe.com/manifests/urn-c2pa-8a15a47a-111c-4f36-995e-da289b26a644-adobe"> </rdf:Description></rdf:RDF></x:xmpmeta>
<?xpacket end="w"?></metadata>
  <!-- Generator: Adobe Illustrator 30.8.1, SVG Export Plug-In . SVG Version: 2.1.4 Build 1)  -->
  <defs>
    <style>
      .st0 {
        fill: #070707;
        stroke-width: 10px;
      }

      .st0, .st1 {
        stroke: #fff;
      }

      .st0, .st1, .st2 {
        stroke-miterlimit: 10;
      }

      .st3 {
        fill: #605e5c;
      }

      .st4 {
        fill: #bcbec0;
      }

      .st1 {
        stroke-width: 16px;
      }

      .st1, .st5 {
        fill: #a7a9ac;
      }

      .st6, .st2 {
        fill: #fff;
      }

      .st2 {
        stroke: #bcbec0;
        stroke-width: 18px;
      }

      .st7 {
        fill: #808285;
      }

      .st8 {
        fill: #939598;
      }

      .st9 {
        fill: #b7ffde;
      }
    </style>
  </defs>
  <g id="NO_x5F_SOUND">
    <g>
      <path class="st4" d="M848.66,614.38c-2.26,0-4.53-.78-6.37-2.39-4.05-3.52-4.48-9.66-.95-13.71,26.23-30.16,40.67-68.8,40.67-108.82s-14.9-79.89-41.95-110.28c-3.57-4.01-3.21-10.15.8-13.72,4.01-3.57,10.15-3.21,13.72.8,30.22,33.95,46.87,77.7,46.87,123.2s-16.14,87.88-45.44,121.57c-1.92,2.21-4.62,3.34-7.33,3.34Z"/>
      <path class="st4" d="M910.61,669.87c-2.18,0-4.37-.73-6.18-2.22-4.14-3.41-4.73-9.54-1.31-13.68,37.82-45.85,58.64-103.89,58.64-163.43s-20.84-117.63-58.69-163.49c-3.42-4.14-2.83-10.26,1.31-13.68,4.14-3.41,10.26-2.83,13.68,1.31,40.71,49.33,63.13,111.79,63.13,175.86s-22.4,126.48-63.09,175.8c-1.92,2.33-4.7,3.53-7.5,3.53Z"/>
      <path class="st4" d="M971.47,733.36c-2.15,0-4.31-.71-6.11-2.17-4.17-3.38-4.81-9.5-1.43-13.67,51.35-63.34,79.62-143.23,79.62-224.94s-28.99-163.6-81.63-227.39c-3.42-4.14-2.83-10.26,1.31-13.68,4.14-3.41,10.26-2.83,13.68,1.31,27.27,33.04,48.53,70.11,63.2,110.16,15.18,41.45,22.87,85.05,22.87,129.59s-7.5,87.02-22.29,128c-14.29,39.6-35.04,76.33-61.67,109.18-1.92,2.37-4.73,3.6-7.55,3.6Z"/>
    </g>
    <g>
      <path class="st4" d="M236.86,618.67c-2.71,0-5.41-1.13-7.33-3.34-29.3-33.69-45.44-76.87-45.44-121.57s16.65-89.25,46.87-123.2c3.57-4.01,9.71-4.36,13.72-.8,4.01,3.57,4.36,9.71.8,13.72-27.05,30.39-41.95,69.55-41.95,110.28s14.44,78.66,40.67,108.82c3.52,4.05,3.09,10.19-.95,13.71-1.84,1.6-4.11,2.39-6.37,2.39Z"/>
      <path class="st4" d="M174.91,674.16c-2.8,0-5.58-1.2-7.5-3.53-40.68-49.32-63.08-111.75-63.08-175.8s22.42-126.53,63.13-175.86c3.42-4.14,9.54-4.73,13.68-1.31,4.14,3.42,4.73,9.54,1.31,13.68-37.85,45.86-58.69,103.92-58.69,163.49s20.83,117.59,58.64,163.43c3.41,4.14,2.83,10.26-1.31,13.68-1.81,1.49-4,2.22-6.18,2.22Z"/>
      <path class="st4" d="M114.04,737.64c-2.83,0-5.63-1.23-7.55-3.6-26.63-32.85-47.37-69.58-61.67-109.18-14.79-40.98-22.29-84.04-22.29-128s7.7-88.14,22.87-129.6c14.67-40.05,35.93-77.12,63.2-110.16,3.42-4.14,9.54-4.73,13.68-1.31,4.14,3.42,4.73,9.54,1.31,13.68-52.64,63.78-81.63,144.54-81.63,227.39s28.28,161.59,79.62,224.94c3.38,4.17,2.74,10.29-1.43,13.67-1.8,1.46-3.96,2.17-6.11,2.17Z"/>
    </g>
    <g>
      <path class="st2" d="M788.38,863.43c0,30.18-23.81,56.69-54.15,56.69l-388.64-.09c-28.38,0-52.75-25.99-52.76-54.19l-.26-714.93c0-32.47,24.42-59.57,56.89-62.06h382.91c31.02,2.74,54.53,28.15,55.95,59.2l.07,715.38Z"/>
      <g id="_x21__x21_BUTTON_x5F_UP">
        <path id="Over_x5F_Button" class="st5" d="M544.54,650.03c-56.43,0-102.18,45.75-102.18,102.18s45.75,102.18,102.18,102.18,102.18-45.75,102.18-102.18-45.75-102.18-102.18-102.18ZM544.54,824.27c-40.43,0-73.21-32.78-73.21-73.21s32.78-73.21,73.21-73.21,73.21,32.78,73.21,73.21-32.78,73.21-73.21,73.21Z"/>
        <circle id="_x3C_ButtonUp_x3E_" class="st1" cx="544.54" cy="751.06" r="73.21"/>
      </g>
      <g>
        <g>
          <g id="_x21__x21_LED_x5F_MATRIX">
            <path id="LED25" class="st3" d="M672.41,550.25l-27.01.12c-4.05.02-7.19,3.03-7.18,7.11l.05,26.53c0,3.99,3.13,7.29,7.08,7.31l27.5.17c4.13-.82,6.44-3.66,6.72-7.48l.06-25.57c0-4.44-2.84-7.57-7.21-8.2Z"/>
            <path id="LED24" class="st3" d="M612.83,550.3l-26.89.11c-3.9.02-7.14,3.16-7.14,7.08v26.54c0,4.27,3.6,7.38,7.77,7.37l26.82-.07c4.28-.01,6.83-3.9,6.85-7.46l.15-25.42c.03-4.39-2.97-8.16-7.55-8.14Z"/>
            <path id="LED23" class="st3" d="M553.21,550.3h-26.11c-4.17,0-7.44,3.1-7.46,7.28l-.12,25.51c-.02,4.79,3.44,8.38,8.34,8.34l26.66-.21c4.07-.03,6.49-3.78,6.49-7.15l.05-25.65c0-4.62-3.17-8.13-7.86-8.12Z"/>
            <path id="LED22" class="st3" d="M494.55,550.25l-27.04.06c-3.98,0-7.1,3.16-7.1,7.21v26.52c0,4.4,3.58,7.43,7.83,7.43l26.01-.03c5.03,0,7.58-4.01,7.58-8.32v-24.66c0-4.49-2.83-7.66-7.29-8.2Z"/>
            <path id="LED21" class="st3" d="M434.96,550.3l-27.02-.07c-4.37.65-7,3.82-7,8.23l.05,24.59c.01,5.06,3.65,8.41,8.61,8.41h25.11c4.5,0,7.77-3.47,7.79-7.49l.12-25.51c.02-4.52-3.04-8.15-7.65-8.16Z"/>
            <path id="LED20" class="st3" d="M646.09,532.97l26.09-.08c4.42-.01,7.32-3.58,7.33-7.48l.07-25.62c.01-4.28-2.9-7.99-7.33-7.97l-27.08.08c-3.86.01-6.97,3.11-6.96,6.97l.08,26.51c.01,4.4,3.55,7.61,7.8,7.6Z"/>
            <path id="LED19" class="st3" d="M612.64,491.78l-27.06.1c-3.8.35-6.77,3.12-6.77,7v26.51c0,4.35,3.43,7.55,7.69,7.55h27.85c3.77-1.24,5.86-4.22,5.88-7.75l.15-25.37c.03-4.56-3.12-8.06-7.74-8.04Z"/>
            <path id="LED18" class="st3" d="M526.97,532.95l26.93-.08c4.4-.01,7.09-3.64,7.09-7.49l.03-25.58c0-4.55-3.25-8.08-7.81-8.08l-25.93.02c-4.23,0-7.59,3.02-7.62,7.31l-.15,25.38c-.03,4.54,2.86,8.08,7.45,8.51Z"/>
            <path id="LED17" class="st3" d="M468.22,532.96l26.07-.08c4.42-.01,7.46-3.54,7.46-7.44l-.05-26.63c0-3.56-2.9-6.9-6.6-6.91l-27.42-.11c-3.94-.02-7.28,3.05-7.28,7.06v26.54c0,4.35,3.59,7.58,7.82,7.57Z"/>
            <path id="LED16" class="st3" d="M408.63,532.92h26.92c4.23-.7,6.97-3.69,6.97-7.6v-26.39c0-3.85-3.09-7.06-6.97-7.07l-27.46-.05c-4.37,0-7.17,3.77-7.16,7.97l.09,25.6c.01,4.26,3.43,7.54,7.61,7.54Z"/>
            <path id="LED15" class="st3" d="M672.22,433.2l-27.07.08c-3.8.01-6.89,3.15-6.89,6.95v26.5c0,4.45,3.5,7.72,7.84,7.71l26.07-.07c4.48-.01,7.3-3.67,7.32-7.61l.15-25.62c.02-4.31-2.94-7.94-7.42-7.93Z"/>
            <path id="LED14" class="st3" d="M586.51,474.45l25.6.06c4.39,0,7.52-2.69,8.19-7.06l-.04-27c0-4.64-3.65-7.31-8.11-7.29l-26.59.16c-3.74.02-6.77,3.16-6.77,6.9v26.51c0,4.47,3.34,7.71,7.72,7.72Z"/>
            <path id="LED13" class="st3" d="M526.9,474.41l27,.09c4.45-.53,7.09-3.74,7.1-7.77v-26.43c-.42-4.13-3.37-7.07-7.54-7.07h-26.58c-4.1.02-7.19,3.13-7.2,7.19l-.07,27.04c.56,3.94,3.23,6.93,7.3,6.94Z"/>
            <path id="LED12" class="st3" d="M468.25,474.41l26.06.1c4.43-.54,7.42-3.65,7.41-7.73l-.05-26.56c0-3.81-3.03-6.93-6.91-6.94h-27.48c-3.84-.01-6.88,3.15-6.89,6.94l-.07,26.56c-.01,4.41,3.56,7.61,7.92,7.63Z"/>
            <path id="LED11" class="st3" d="M408.65,474.41h26.52c4.35.01,7.35-3.52,7.36-7.74l.04-26.35c-.25-4.21-3.19-7.04-7.37-7.05l-26.59-.06c-4.05,0-7.55,2.79-7.56,7.03l-.04,26.48c0,4.35,3.31,7.68,7.64,7.68Z"/>
            <path id="LED10" class="st3" d="M646.52,415.95l25.22-.05c4.42,0,7.82-3.29,7.83-7.78l.03-25.62c0-4.34-2.89-7.97-7.39-7.96l-26.12.02c-4.07,0-7.83,2.79-7.83,7.04l-.06,26.52c0,4.51,3.44,7.85,8.33,7.84Z"/>
            <path id="LED9" class="st3" d="M586.47,415.91l27.06-.02c4.11-.53,6.26-3.51,6.75-7.07v-27.06c-.01-3.98-3.17-7.08-7.25-7.09l-26.53-.06c-4.57-.01-7.77,3.38-7.77,7.9l.04,25.58c0,4.44,3.3,7.83,7.7,7.83Z"/>
            <path id="LED8" class="st3" d="M553.47,374.63l-26.57.04c-4,0-7.25,3.15-7.24,7.09v27.11c.01,3.82,3.36,7.03,7.24,7.02l27.02-.08c4.42-.01,7.06-3.93,7.05-7.68l-.06-26.48c0-3.99-3.49-7.02-7.44-7.01Z"/>
            <path id="LED7" class="st3" d="M468.21,415.93l26.16-.08c4.43-.01,7.32-3.89,7.32-7.69l.04-25.66c0-4.09-2.65-7.76-7-7.78l-26.5-.13c-4.66-.02-7.93,3.3-7.93,7.94v25.62c0,4.39,3.51,7.8,7.9,7.79Z"/>
            <path id="LED6" class="st3" d="M409.56,415.98l26.09-.07c4.04-.55,6.79-3.39,6.8-7.06l.03-27.21c0-3.95-3.34-7.02-7.28-7.03l-26.62-.02c-3.91,0-7.5,2.95-7.51,7.05l-.07,26.42c-.01,4.88,3.88,7.91,8.55,7.9Z"/>
            <path id="LED5" class="st3" d="M646.08,357.28l26.13-.13c4.52-.02,7.36-3.75,7.35-7.65l-.1-26.54c-.02-4.3-3.61-6.96-7.75-6.96h-25.64c-4.06,0-7.79,2.64-7.82,6.96l-.13,26.54c-.02,4.41,3.56,7.8,7.95,7.78Z"/>
            <path id="LED4" class="st3" d="M586.52,357.22l27.04.02c3.84-.6,6.62-3.51,6.63-7.05l.06-27.05c0-4-3.17-7.06-7.2-7.07l-26.55-.06c-4.52,0-7.72,3.36-7.72,7.84l-.03,25.64c0,4.36,3.35,7.71,7.78,7.71Z"/>
            <path id="LED3" class="st3" d="M526.91,357.2l26.99-.08c4.49-.01,7.11-3.82,7.09-7.65l-.09-26.46c-.01-4.04-3.49-6.98-7.42-6.97l-26.59.03c-4.01,0-7.19,3.12-7.2,7.07l-.08,27.09c.49,3.83,3.25,6.99,7.3,6.98Z"/>
            <path id="LED2" class="st3" d="M468.22,357.3l26.13-.08c4.59-.01,7.41-3.75,7.39-7.73l-.12-26.54c-.02-3.87-3.1-6.62-6.84-6.88l-26.55-.07c-4.61-.01-7.94,3.23-7.93,7.87l.02,25.61c0,4.4,3.48,7.82,7.9,7.81Z"/>
            <path id="LED1" class="st3" d="M408.62,357.25l27.02.02c4.56-.56,6.97-3.78,6.95-7.82l-.12-26.32c-.02-3.73-2.74-6.43-6.4-6.97l-27.48-.15c-3.91-.02-7.52,2.87-7.52,7l-.06,26.45c0,4.28,3.34,7.78,7.61,7.79Z"/>
          </g>
          <path class="st3" d="M703.57,316.38c-1.47-13.46-12.88-23.94-26.73-23.94h-273.05c-14.72.17-26.6,12.14-26.6,26.9v265.31c0,14.85,12.04,26.9,26.9,26.9h272.75c14.28,0,25.96-11.13,26.84-25.19-.02-.46-.05-.92-.1-1.38-.15-1.41-.1-2.7.15-3.91v-245.37l-.14-18.51c0-.27-.02-.54-.03-.8ZM519.69,323.07c.01-3.95,3.19-7.07,7.2-7.07l26.59-.03c3.94,0,7.41,2.93,7.42,6.97l.09,26.47c.01,3.83-2.61,7.64-7.09,7.65l-26.99.08c-4.05.01-6.81-3.16-7.3-6.98l.08-27.1ZM560.97,408.07c0,3.75-2.63,7.67-7.05,7.68l-27.02.08c-3.88.01-7.22-3.19-7.23-7.02v-27.11c-.01-3.94,3.23-7.09,7.23-7.09l26.57-.04c3.94,0,7.43,3.03,7.44,7.02l.06,26.48ZM519.67,440.39c0-4.06,3.11-7.18,7.2-7.18h26.58c4.17-.02,7.13,2.93,7.55,7.05v26.43c0,4.03-2.65,7.23-7.1,7.77l-27-.09c-4.07-.01-6.74-3-7.3-6.94l.07-27.05ZM401.06,322.95c0-4.12,3.61-7.02,7.52-7l27.48.15c3.66.54,6.38,3.24,6.4,6.97l.12,26.32c.02,4.04-2.39,7.26-6.95,7.82l-27.02-.02c-4.28,0-7.62-3.51-7.61-7.79l.06-26.46ZM401.05,440.21c0-4.25,3.51-7.04,7.56-7.04l26.59.06c4.18,0,7.12,2.84,7.37,7.05l-.04,26.36c0,4.22-3.01,7.75-7.36,7.75h-26.52c-4.33-.01-7.65-3.34-7.64-7.69l.04-26.49ZM401.02,408.04l.07-26.43c.01-4.1,3.59-7.06,7.51-7.05l26.62.02c3.93,0,7.28,3.07,7.28,7.03l-.03,27.21c0,3.67-2.76,6.5-6.8,7.06l-26.09.07c-4.67.01-8.56-3.02-8.55-7.9ZM408.09,491.79l27.46.05c3.88,0,6.98,3.22,6.98,7.07v26.4c0,3.91-2.75,6.91-6.97,7.61h-26.92c-4.18,0-7.59-3.29-7.61-7.54l-.09-25.61c-.01-4.2,2.79-7.98,7.16-7.97ZM442.49,583.97c-.02,4.02-3.29,7.5-7.79,7.5h-25.11c-4.96,0-8.6-3.36-8.61-8.42l-.05-24.6c0-4.41,2.63-7.58,7-8.24l27.02.07c4.62.01,7.67,3.64,7.65,8.16l-.12,25.52ZM468.23,315.94l26.55.07c3.75.26,6.83,3.01,6.84,6.88l.12,26.55c.02,3.98-2.8,7.71-7.39,7.73l-26.13.08c-4.42.01-7.9-3.41-7.9-7.81l-.02-25.62c0-4.64,3.32-7.89,7.93-7.88ZM460.31,382.47c0-4.64,3.27-7.96,7.93-7.94l26.5.13c4.34.02,7,3.69,7,7.78l-.04,25.67c0,3.8-2.89,7.68-7.32,7.69l-26.16.08c-4.39.01-7.91-3.4-7.91-7.79v-25.62ZM460.4,440.19c0-3.8,3.06-6.96,6.89-6.96h27.48c3.88.01,6.9,3.14,6.91,6.95l.05,26.57c0,4.08-2.98,7.19-7.41,7.73l-26.06-.1c-4.36-.02-7.93-3.22-7.92-7.63l.07-26.57ZM460.4,498.84c0-4.01,3.35-7.08,7.28-7.06l27.42.11c3.7.01,6.59,3.36,6.6,6.91l.05,26.63c0,3.89-3.03,7.42-7.46,7.44l-26.07.08c-4.23.01-7.83-3.22-7.83-7.57v-26.54ZM494.25,591.43l-26.01.03c-4.25,0-7.83-3.03-7.83-7.43v-26.53c0-4.04,3.11-7.2,7.09-7.21l27.04-.06c4.46.55,7.28,3.71,7.28,8.2v24.67c0,4.31-2.55,8.32-7.58,8.32ZM519.67,499.04c.03-4.28,3.39-7.3,7.62-7.31l25.93-.02c4.57,0,7.82,3.52,7.81,8.08l-.03,25.58c0,3.85-2.69,7.48-7.09,7.49l-26.93.08c-4.59-.43-7.48-3.98-7.45-8.51l.15-25.38ZM561.02,584.07c0,3.38-2.42,7.12-6.49,7.15l-26.66.21c-4.9.04-8.36-3.55-8.34-8.35l.12-25.52c.02-4.18,3.29-7.28,7.46-7.28h26.11c4.69,0,7.86,3.5,7.86,8.12l-.05,25.65ZM578.77,323.8c0-4.48,3.2-7.85,7.72-7.84l26.55.06c4.03,0,7.21,3.07,7.2,7.07l-.06,27.05c0,3.54-2.79,6.45-6.63,7.05l-27.04-.02c-4.43,0-7.78-3.36-7.78-7.72l.03-25.65ZM578.74,382.46c0-4.52,3.19-7.91,7.77-7.9l26.53.06c4.08,0,7.23,3.11,7.23,7.09v27.07c-.48,3.56-2.63,6.54-6.74,7.07l-27.06.02c-4.4,0-7.69-3.39-7.7-7.83l-.04-25.58ZM578.79,440.18c0-3.73,3.02-6.88,6.77-6.9l26.59-.16c4.46-.03,8.11,2.65,8.11,7.29l.04,27c-.67,4.37-3.8,7.07-8.19,7.06l-25.6-.06c-4.38,0-7.72-3.26-7.72-7.73v-26.51ZM620.24,583.86c-.02,3.57-2.57,7.46-6.85,7.47l-26.82.07c-4.17.01-7.76-3.09-7.76-7.37v-26.55c0-3.92,3.24-7.06,7.13-7.08l26.89-.11c4.58-.02,7.58,3.75,7.55,8.14l-.15,25.43ZM620.24,525.17c-.02,3.53-2.11,6.51-5.88,7.75h-27.85c-4.27,0-7.7-3.2-7.7-7.55v-26.51c0-3.88,2.97-6.65,6.77-7l27.06-.1c4.62-.02,7.77,3.48,7.74,8.04l-.15,25.37ZM638.26,322.89c.02-4.32,3.75-6.96,7.82-6.96h25.64c4.14,0,7.73,2.66,7.75,6.96l.1,26.55c.01,3.9-2.83,7.63-7.35,7.65l-26.13.13c-4.39.02-7.97-3.37-7.95-7.78l.13-26.55ZM638.25,381.54c0-4.25,3.76-7.04,7.83-7.04l26.12-.02c4.5,0,7.4,3.63,7.39,7.97l-.03,25.63c0,4.5-3.41,7.78-7.83,7.79l-25.22.05c-4.89,0-8.34-3.33-8.33-7.84l.06-26.53ZM679.56,584.02c-.28,3.82-2.58,6.66-6.72,7.48l-27.5-.17c-3.95-.02-7.07-3.32-7.08-7.32l-.05-26.54c0-4.08,3.14-7.1,7.18-7.12l27.01-.12c4.37.63,7.22,3.76,7.21,8.2l-.06,25.58ZM638.21,498.84c-.01-3.86,3.1-6.96,6.96-6.97l27.08-.08c4.43-.01,7.34,3.69,7.33,7.97l-.07,25.63c-.01,3.9-2.91,7.47-7.33,7.48l-26.09.08c-4.25.01-7.78-3.2-7.8-7.6l-.08-26.52ZM679.49,466.72c-.02,3.93-2.84,7.59-7.32,7.61l-26.07.07c-4.35.01-7.84-3.26-7.84-7.71v-26.5c0-3.8,3.08-6.94,6.88-6.95l27.07-.08c4.47-.01,7.44,3.62,7.42,7.93l-.15,25.63Z"/>
        </g>
        <g>
          <g id="_x21__x21_LED_x5F_MATRIX1" data-name="_x21__x21_LED_x5F_MATRIX">
            <path id="LED251" data-name="LED25" class="st9" d="M672.41,550.25l-27.01.12c-4.05.02-7.19,3.03-7.18,7.11l.05,26.53c0,3.99,3.13,7.29,7.08,7.31l27.5.17c4.13-.82,6.44-3.66,6.72-7.48l.06-25.57c0-4.44-2.84-7.57-7.21-8.2Z"/>
            <path id="LED241" data-name="LED24" class="st9" d="M612.83,550.3l-26.89.11c-3.9.02-7.14,3.16-7.14,7.08v26.54c0,4.27,3.6,7.38,7.77,7.37l26.82-.07c4.28-.01,6.83-3.9,6.85-7.46l.15-25.42c.03-4.39-2.97-8.16-7.55-8.14Z"/>
            <path id="LED231" data-name="LED23" class="st9" d="M553.21,550.3h-26.11c-4.17,0-7.44,3.1-7.46,7.28l-.12,25.51c-.02,4.79,3.44,8.38,8.34,8.34l26.66-.21c4.07-.03,6.49-3.78,6.49-7.15l.05-25.65c0-4.62-3.17-8.13-7.86-8.12Z"/>
            <path id="LED221" data-name="LED22" class="st9" d="M494.55,550.25l-27.04.06c-3.98,0-7.1,3.16-7.1,7.21v26.52c0,4.4,3.58,7.43,7.83,7.43l26.01-.03c5.03,0,7.58-4.01,7.58-8.32v-24.66c0-4.49-2.83-7.66-7.29-8.2Z"/>
            <path id="LED211" data-name="LED21" class="st9" d="M434.96,550.3l-27.02-.07c-4.37.65-7,3.82-7,8.23l.05,24.59c.01,5.06,3.65,8.41,8.61,8.41h25.11c4.5,0,7.77-3.47,7.79-7.49l.12-25.51c.02-4.52-3.04-8.15-7.65-8.16Z"/>
            <path id="LED201" data-name="LED20" class="st9" d="M646.09,532.97l26.09-.08c4.42-.01,7.32-3.58,7.33-7.48l.07-25.62c.01-4.28-2.9-7.99-7.33-7.97l-27.08.08c-3.86.01-6.97,3.11-6.96,6.97l.08,26.51c.01,4.4,3.55,7.61,7.8,7.6Z"/>
            <path id="LED191" data-name="LED19" class="st9" d="M612.64,491.78l-27.06.1c-3.8.35-6.77,3.12-6.77,7v26.51c0,4.35,3.43,7.55,7.69,7.55h27.85c3.77-1.24,5.86-4.22,5.88-7.75l.15-25.37c.03-4.56-3.12-8.06-7.74-8.04Z"/>
            <path id="LED181" data-name="LED18" class="st9" d="M526.97,532.95l26.93-.08c4.4-.01,7.09-3.64,7.09-7.49l.03-25.58c0-4.55-3.25-8.08-7.81-8.08l-25.93.02c-4.23,0-7.59,3.02-7.62,7.31l-.15,25.38c-.03,4.54,2.86,8.08,7.45,8.51Z"/>
            <path id="LED171" data-name="LED17" class="st9" d="M468.22,532.96l26.07-.08c4.42-.01,7.46-3.54,7.46-7.44l-.05-26.63c0-3.56-2.9-6.9-6.6-6.91l-27.42-.11c-3.94-.02-7.28,3.05-7.28,7.06v26.54c0,4.35,3.59,7.58,7.82,7.57Z"/>
            <path id="LED161" data-name="LED16" class="st9" d="M408.63,532.92h26.92c4.23-.7,6.97-3.69,6.97-7.6v-26.39c0-3.85-3.09-7.06-6.97-7.07l-27.46-.05c-4.37,0-7.17,3.77-7.16,7.97l.09,25.6c.01,4.26,3.43,7.54,7.61,7.54Z"/>
            <path id="LED151" data-name="LED15" class="st9" d="M672.22,433.2l-27.07.08c-3.8.01-6.89,3.15-6.89,6.95v26.5c0,4.45,3.5,7.72,7.84,7.71l26.07-.07c4.48-.01,7.3-3.67,7.32-7.61l.15-25.62c.02-4.31-2.94-7.94-7.42-7.93Z"/>
            <path id="LED141" data-name="LED14" class="st9" d="M586.51,474.45l25.6.06c4.39,0,7.52-2.69,8.19-7.06l-.04-27c0-4.64-3.65-7.31-8.11-7.29l-26.59.16c-3.74.02-6.77,3.16-6.77,6.9v26.51c0,4.47,3.34,7.71,7.72,7.72Z"/>
            <path id="LED131" data-name="LED13" class="st9" d="M526.9,474.41l27,.09c4.45-.53,7.09-3.74,7.1-7.77v-26.43c-.42-4.13-3.37-7.07-7.54-7.07h-26.58c-4.1.02-7.19,3.13-7.2,7.19l-.07,27.04c.56,3.94,3.23,6.93,7.3,6.94Z"/>
            <path id="LED121" data-name="LED12" class="st9" d="M468.25,474.41l26.06.1c4.43-.54,7.42-3.65,7.41-7.73l-.05-26.56c0-3.81-3.03-6.93-6.91-6.94h-27.48c-3.84-.01-6.88,3.15-6.89,6.94l-.07,26.56c-.01,4.41,3.56,7.61,7.92,7.63Z"/>
            <path id="LED111" data-name="LED11" class="st9" d="M408.65,474.41h26.52c4.35.01,7.35-3.52,7.36-7.74l.04-26.35c-.25-4.21-3.19-7.04-7.37-7.05l-26.59-.06c-4.05,0-7.55,2.79-7.56,7.03l-.04,26.48c0,4.35,3.31,7.68,7.64,7.68Z"/>
            <path id="LED101" data-name="LED10" class="st9" d="M646.52,415.95l25.22-.05c4.42,0,7.82-3.29,7.83-7.78l.03-25.62c0-4.34-2.89-7.97-7.39-7.96l-26.12.02c-4.07,0-7.83,2.79-7.83,7.04l-.06,26.52c0,4.51,3.44,7.85,8.33,7.84Z"/>
            <path id="LED91" data-name="LED9" class="st9" d="M586.47,415.91l27.06-.02c4.11-.53,6.26-3.51,6.75-7.07v-27.06c-.01-3.98-3.17-7.08-7.25-7.09l-26.53-.06c-4.57-.01-7.77,3.38-7.77,7.9l.04,25.58c0,4.44,3.3,7.83,7.7,7.83Z"/>
            <path id="LED81" data-name="LED8" class="st9" d="M553.47,374.63l-26.57.04c-4,0-7.25,3.15-7.24,7.09v27.11c.01,3.82,3.36,7.03,7.24,7.02l27.02-.08c4.42-.01,7.06-3.93,7.05-7.68l-.06-26.48c0-3.99-3.49-7.02-7.44-7.01Z"/>
            <path id="LED71" data-name="LED7" class="st9" d="M468.21,415.93l26.16-.08c4.43-.01,7.32-3.89,7.32-7.69l.04-25.66c0-4.09-2.65-7.76-7-7.78l-26.5-.13c-4.66-.02-7.93,3.3-7.93,7.94v25.62c0,4.39,3.51,7.8,7.9,7.79Z"/>
            <path id="LED61" data-name="LED6" class="st9" d="M409.56,415.98l26.09-.07c4.04-.55,6.79-3.39,6.8-7.06l.03-27.21c0-3.95-3.34-7.02-7.28-7.03l-26.62-.02c-3.91,0-7.5,2.95-7.51,7.05l-.07,26.42c-.01,4.88,3.88,7.91,8.55,7.9Z"/>
            <path id="LED51" data-name="LED5" class="st9" d="M646.08,357.28l26.13-.13c4.52-.02,7.36-3.75,7.35-7.65l-.1-26.54c-.02-4.3-3.61-6.96-7.75-6.96h-25.64c-4.06,0-7.79,2.64-7.82,6.96l-.13,26.54c-.02,4.41,3.56,7.8,7.95,7.78Z"/>
            <path id="LED41" data-name="LED4" class="st9" d="M586.52,357.22l27.04.02c3.84-.6,6.62-3.51,6.63-7.05l.06-27.05c0-4-3.17-7.06-7.2-7.07l-26.55-.06c-4.52,0-7.72,3.36-7.72,7.84l-.03,25.64c0,4.36,3.35,7.71,7.78,7.71Z"/>
            <path id="LED31" data-name="LED3" class="st9" d="M526.91,357.2l26.99-.08c4.49-.01,7.11-3.82,7.09-7.65l-.09-26.46c-.01-4.04-3.49-6.98-7.42-6.97l-26.59.03c-4.01,0-7.19,3.12-7.2,7.07l-.08,27.09c.49,3.83,3.25,6.99,7.3,6.98Z"/>
            <path id="LED26" data-name="LED2" class="st9" d="M468.22,357.3l26.13-.08c4.59-.01,7.41-3.75,7.39-7.73l-.12-26.54c-.02-3.87-3.1-6.62-6.84-6.88l-26.55-.07c-4.61-.01-7.94,3.23-7.93,7.87l.02,25.61c0,4.4,3.48,7.82,7.9,7.81Z"/>
            <path id="LED110" data-name="LED1" class="st9" d="M408.62,357.25l27.02.02c4.56-.56,6.97-3.78,6.95-7.82l-.12-26.32c-.02-3.73-2.74-6.43-6.4-6.97l-27.48-.15c-3.91-.02-7.52,2.87-7.52,7l-.06,26.45c0,4.28,3.34,7.78,7.61,7.79Z"/>
          </g>
          <path class="st7" d="M703.57,316.38c-1.47-13.46-12.88-23.94-26.73-23.94h-273.05c-14.72.17-26.6,12.14-26.6,26.9v265.31c0,14.85,12.04,26.9,26.9,26.9h272.75c14.28,0,25.96-11.13,26.84-25.19-.02-.46-.05-.92-.1-1.38-.15-1.41-.1-2.7.15-3.91v-245.37l-.14-18.51c0-.27-.02-.54-.03-.8ZM519.69,323.07c.01-3.95,3.19-7.07,7.2-7.07l26.59-.03c3.94,0,7.41,2.93,7.42,6.97l.09,26.47c.01,3.83-2.61,7.64-7.09,7.65l-26.99.08c-4.05.01-6.81-3.16-7.3-6.98l.08-27.1ZM560.97,408.07c0,3.75-2.63,7.67-7.05,7.68l-27.02.08c-3.88.01-7.22-3.19-7.23-7.02v-27.11c-.01-3.94,3.23-7.09,7.23-7.09l26.57-.04c3.94,0,7.43,3.03,7.44,7.02l.06,26.48ZM519.67,440.39c0-4.06,3.11-7.18,7.2-7.18h26.58c4.17-.02,7.13,2.93,7.55,7.05v26.43c0,4.03-2.65,7.23-7.1,7.77l-27-.09c-4.07-.01-6.74-3-7.3-6.94l.07-27.05ZM401.06,322.95c0-4.12,3.61-7.02,7.52-7l27.48.15c3.66.54,6.38,3.24,6.4,6.97l.12,26.32c.02,4.04-2.39,7.26-6.95,7.82l-27.02-.02c-4.28,0-7.62-3.51-7.61-7.79l.06-26.46ZM401.05,440.21c0-4.25,3.51-7.04,7.56-7.04l26.59.06c4.18,0,7.12,2.84,7.37,7.05l-.04,26.36c0,4.22-3.01,7.75-7.36,7.75h-26.52c-4.33-.01-7.65-3.34-7.64-7.69l.04-26.49ZM401.02,408.04l.07-26.43c.01-4.1,3.59-7.06,7.51-7.05l26.62.02c3.93,0,7.28,3.07,7.28,7.03l-.03,27.21c0,3.67-2.76,6.5-6.8,7.06l-26.09.07c-4.67.01-8.56-3.02-8.55-7.9ZM408.09,491.79l27.46.05c3.88,0,6.98,3.22,6.98,7.07v26.4c0,3.91-2.75,6.91-6.97,7.61h-26.92c-4.18,0-7.59-3.29-7.61-7.54l-.09-25.61c-.01-4.2,2.79-7.98,7.16-7.97ZM442.49,583.97c-.02,4.02-3.29,7.5-7.79,7.5h-25.11c-4.96,0-8.6-3.36-8.61-8.42l-.05-24.6c0-4.41,2.63-7.58,7-8.24l27.02.07c4.62.01,7.67,3.64,7.65,8.16l-.12,25.52ZM468.23,315.94l26.55.07c3.75.26,6.83,3.01,6.84,6.88l.12,26.55c.02,3.98-2.8,7.71-7.39,7.73l-26.13.08c-4.42.01-7.9-3.41-7.9-7.81l-.02-25.62c0-4.64,3.32-7.89,7.93-7.88ZM460.31,382.47c0-4.64,3.27-7.96,7.93-7.94l26.5.13c4.34.02,7,3.69,7,7.78l-.04,25.67c0,3.8-2.89,7.68-7.32,7.69l-26.16.08c-4.39.01-7.91-3.4-7.91-7.79v-25.62ZM460.4,440.19c0-3.8,3.06-6.96,6.89-6.96h27.48c3.88.01,6.9,3.14,6.91,6.95l.05,26.57c0,4.08-2.98,7.19-7.41,7.73l-26.06-.1c-4.36-.02-7.93-3.22-7.92-7.63l.07-26.57ZM460.4,498.84c0-4.01,3.35-7.08,7.28-7.06l27.42.11c3.7.01,6.59,3.36,6.6,6.91l.05,26.63c0,3.89-3.03,7.42-7.46,7.44l-26.07.08c-4.23.01-7.83-3.22-7.83-7.57v-26.54ZM494.25,591.43l-26.01.03c-4.25,0-7.83-3.03-7.83-7.43v-26.53c0-4.04,3.11-7.2,7.09-7.21l27.04-.06c4.46.55,7.28,3.71,7.28,8.2v24.67c0,4.31-2.55,8.32-7.58,8.32ZM519.67,499.04c.03-4.28,3.39-7.3,7.62-7.31l25.93-.02c4.57,0,7.82,3.52,7.81,8.08l-.03,25.58c0,3.85-2.69,7.48-7.09,7.49l-26.93.08c-4.59-.43-7.48-3.98-7.45-8.51l.15-25.38ZM561.02,584.07c0,3.38-2.42,7.12-6.49,7.15l-26.66.21c-4.9.04-8.36-3.55-8.34-8.35l.12-25.52c.02-4.18,3.29-7.28,7.46-7.28h26.11c4.69,0,7.86,3.5,7.86,8.12l-.05,25.65ZM578.77,323.8c0-4.48,3.2-7.85,7.72-7.84l26.55.06c4.03,0,7.21,3.07,7.2,7.07l-.06,27.05c0,3.54-2.79,6.45-6.63,7.05l-27.04-.02c-4.43,0-7.78-3.36-7.78-7.72l.03-25.65ZM578.74,382.46c0-4.52,3.19-7.91,7.77-7.9l26.53.06c4.08,0,7.23,3.11,7.23,7.09v27.07c-.48,3.56-2.63,6.54-6.74,7.07l-27.06.02c-4.4,0-7.69-3.39-7.7-7.83l-.04-25.58ZM578.79,440.18c0-3.73,3.02-6.88,6.77-6.9l26.59-.16c4.46-.03,8.11,2.65,8.11,7.29l.04,27c-.67,4.37-3.8,7.07-8.19,7.06l-25.6-.06c-4.38,0-7.72-3.26-7.72-7.73v-26.51ZM620.24,583.86c-.02,3.57-2.57,7.46-6.85,7.47l-26.82.07c-4.17.01-7.76-3.09-7.76-7.37v-26.55c0-3.92,3.24-7.06,7.13-7.08l26.89-.11c4.58-.02,7.58,3.75,7.55,8.14l-.15,25.43ZM620.24,525.17c-.02,3.53-2.11,6.51-5.88,7.75h-27.85c-4.27,0-7.7-3.2-7.7-7.55v-26.51c0-3.88,2.97-6.65,6.77-7l27.06-.1c4.62-.02,7.77,3.48,7.74,8.04l-.15,25.37ZM638.26,322.89c.02-4.32,3.75-6.96,7.82-6.96h25.64c4.14,0,7.73,2.66,7.75,6.96l.1,26.55c.01,3.9-2.83,7.63-7.35,7.65l-26.13.13c-4.39.02-7.97-3.37-7.95-7.78l.13-26.55ZM638.25,381.54c0-4.25,3.76-7.04,7.83-7.04l26.12-.02c4.5,0,7.4,3.63,7.39,7.97l-.03,25.63c0,4.5-3.41,7.78-7.83,7.79l-25.22.05c-4.89,0-8.34-3.33-8.33-7.84l.06-26.53ZM679.56,584.02c-.28,3.82-2.58,6.66-6.72,7.48l-27.5-.17c-3.95-.02-7.07-3.32-7.08-7.32l-.05-26.54c0-4.08,3.14-7.1,7.18-7.12l27.01-.12c4.37.63,7.22,3.76,7.21,8.2l-.06,25.58ZM638.21,498.84c-.01-3.86,3.1-6.96,6.96-6.97l27.08-.08c4.43-.01,7.34,3.69,7.33,7.97l-.07,25.63c-.01,3.9-2.91,7.47-7.33,7.48l-26.09.08c-4.25.01-7.78-3.2-7.8-7.6l-.08-26.52ZM679.49,466.72c-.02,3.93-2.84,7.59-7.32,7.61l-26.07.07c-4.35.01-7.84-3.26-7.84-7.71v-26.5c0-3.8,3.08-6.94,6.88-6.95l27.07-.08c4.47-.01,7.44,3.62,7.42,7.93l-.15,25.63Z"/>
        </g>
      </g>
      <g id="Speaker_x5F_Background">
        <ellipse class="st8" cx="679.28" cy="204.69" rx="66.13" ry="65.58"/>
      </g>
      <circle id="_x21__x21_SPEAKER" class="st6" cx="679.28" cy="204.06" r="19.9"/>
    </g>
    <polygon class="st0" points="955.75 148.42 883.78 76.45 553.87 406.36 223.95 76.45 151.99 148.42 481.9 478.33 151.99 808.24 223.95 880.21 553.87 550.29 883.78 880.21 955.75 808.24 625.83 478.33 955.75 148.42"/>
  </g>
</svg>